# xmcd
#
# Track frame offsets:
#	150
#	17103
#	32351
#	53586
#	67279
#	77791
#	103356
#	125915
#	139466
#	173164
#	200075
#	226325
#
# Disc length: 3232 seconds
#
# Revision: 1
# Processed by: cddbd v1.5.2PL0 Copyright (c) Steve Scherf et al.
# Submitted via: CDmax 2.0
#
DISCID=b20c9e0c
DTITLE=Wood, Wire And Words - Riding The Rails
DYEAR=2008
DGENRE=Bluegrass
TTITLE0=The Sawmill
TTITLE1=I'll Be Walking Tall
TTITLE2=Dustbowl Lament
TTITLE3=Born To Be An Outlaw
TTITLE4=I'm Going Home
TTITLE5=Billy Thomas
TTITLE6=The Oregon Trail
TTITLE7=When I'm Gone
TTITLE8=Riding The Rails
TTITLE9=At Night We Pray
TTITLE10=The Outlaw
TTITLE11=Moonshine
EXTD=Pat Francis - Dobro and Mandolin. Clare Rozzell - Double Bass and Vocals. Da
EXTD=vid Rozzell - Guitar, Vocals, Rhythm Mandolin and Songwriter.
EXTT0=Written By David Rozzell
EXTT1=Written By David Rozzell
EXTT2=Written By David Rozzell
EXTT3=Written By David Rozzell
EXTT4=Written By David Rozzell
EXTT5=Written By David Rozzell
EXTT6=Written By David Rozzell
EXTT7=Written By David Rozzell
EXTT8=Written By David Rozzell
EXTT9=Written By David Rozzell
EXTT10=Written By David Rozzell
EXTT11=Written By David Rozzell
PLAYORDER=
